<mxfile host="app.diagrams.net" modified="2021-07-19T10:43:55.480Z" agent="5.0 (Windows NT 10.0; Win64; x64) AppleWebKit/537.36 (KHTML, like Gecko) Chrome/91.0.4472.164 Safari/537.36" etag="WStwjuZ4BCy37nj7takp" version="14.9.0" type="github" pages="2">
  <diagram id="i9xB6vIa-M3ynYu9pXNj" name="spdk_ceph">
    <mxGraphModel dx="813" dy="528" grid="1" gridSize="10" guides="1" tooltips="1" connect="1" arrows="1" fold="1" page="1" pageScale="1" pageWidth="827" pageHeight="1169" math="0" shadow="0">
      <root>
        <mxCell id="KVv1kEaTQHlU4v2rQUdV-0" />
        <mxCell id="KVv1kEaTQHlU4v2rQUdV-1" parent="KVv1kEaTQHlU4v2rQUdV-0" />
        <mxCell id="cXr7WVBPz9ogLk4yMUwH-47" value="" style="rounded=1;whiteSpace=wrap;html=1;strokeWidth=2;fillWeight=4;hachureGap=8;hachureAngle=45;sketch=1;shadow=0;fontSize=12;fontColor=#000000;dashed=1;arcSize=7;fillColor=#FFFFFF;" vertex="1" parent="KVv1kEaTQHlU4v2rQUdV-1">
          <mxGeometry x="30" y="470" width="320" height="260" as="geometry" />
        </mxCell>
        <mxCell id="8o0k4oYvMyt-2cOQT7aP-73" value="" style="rounded=1;whiteSpace=wrap;html=1;strokeWidth=2;fillWeight=4;hachureGap=8;hachureAngle=45;sketch=1;shadow=0;fontSize=12;fontColor=#000000;fillColor=#FFFFFF;dashed=1;" parent="KVv1kEaTQHlU4v2rQUdV-1" vertex="1">
          <mxGeometry x="360" y="40" width="200" height="280" as="geometry" />
        </mxCell>
        <UserObject label="target" placeholders="1" name="Variable" id="8o0k4oYvMyt-2cOQT7aP-74">
          <mxCell style="text;html=1;strokeColor=none;fillColor=none;align=center;verticalAlign=middle;whiteSpace=wrap;overflow=hidden;" parent="KVv1kEaTQHlU4v2rQUdV-1" vertex="1">
            <mxGeometry x="440" y="50" width="40" height="20" as="geometry" />
          </mxCell>
        </UserObject>
        <mxCell id="8o0k4oYvMyt-2cOQT7aP-78" style="edgeStyle=orthogonalEdgeStyle;curved=1;rounded=0;sketch=1;orthogonalLoop=1;jettySize=auto;html=1;entryX=0.5;entryY=0;entryDx=0;entryDy=0;" parent="KVv1kEaTQHlU4v2rQUdV-1" source="8o0k4oYvMyt-2cOQT7aP-75" target="8o0k4oYvMyt-2cOQT7aP-77" edge="1">
          <mxGeometry relative="1" as="geometry" />
        </mxCell>
        <mxCell id="8o0k4oYvMyt-2cOQT7aP-75" value="iscsi(protocol)&lt;br&gt;subsystem" style="rounded=1;whiteSpace=wrap;html=1;strokeWidth=2;fillWeight=4;hachureGap=8;hachureAngle=45;sketch=1;shadow=0;fontSize=12;fontColor=#000000;fillColor=#FFFFFF;" parent="KVv1kEaTQHlU4v2rQUdV-1" vertex="1">
          <mxGeometry x="430" y="80" width="120" height="40" as="geometry" />
        </mxCell>
        <UserObject label="storage&lt;br&gt;protocol" placeholders="1" name="Variable" id="8o0k4oYvMyt-2cOQT7aP-76">
          <mxCell style="text;html=1;strokeColor=none;fillColor=none;align=center;verticalAlign=middle;whiteSpace=wrap;overflow=hidden;" parent="KVv1kEaTQHlU4v2rQUdV-1" vertex="1">
            <mxGeometry x="370" y="80" width="50" height="40" as="geometry" />
          </mxCell>
        </UserObject>
        <mxCell id="8o0k4oYvMyt-2cOQT7aP-80" style="edgeStyle=orthogonalEdgeStyle;curved=1;rounded=0;sketch=1;orthogonalLoop=1;jettySize=auto;html=1;entryX=0.5;entryY=0;entryDx=0;entryDy=0;" parent="KVv1kEaTQHlU4v2rQUdV-1" source="8o0k4oYvMyt-2cOQT7aP-77" target="8o0k4oYvMyt-2cOQT7aP-79" edge="1">
          <mxGeometry relative="1" as="geometry" />
        </mxCell>
        <mxCell id="8o0k4oYvMyt-2cOQT7aP-77" value="scsi&lt;br&gt;subsystem" style="rounded=1;whiteSpace=wrap;html=1;strokeWidth=2;fillWeight=4;hachureGap=8;hachureAngle=45;sketch=1;shadow=0;fontSize=12;fontColor=#000000;fillColor=#FFFFFF;" parent="KVv1kEaTQHlU4v2rQUdV-1" vertex="1">
          <mxGeometry x="430" y="140" width="120" height="40" as="geometry" />
        </mxCell>
        <mxCell id="8o0k4oYvMyt-2cOQT7aP-84" style="edgeStyle=orthogonalEdgeStyle;rounded=0;sketch=1;orthogonalLoop=1;jettySize=auto;html=1;curved=1;" parent="KVv1kEaTQHlU4v2rQUdV-1" source="8o0k4oYvMyt-2cOQT7aP-79" target="8o0k4oYvMyt-2cOQT7aP-82" edge="1">
          <mxGeometry relative="1" as="geometry" />
        </mxCell>
        <mxCell id="8o0k4oYvMyt-2cOQT7aP-85" style="edgeStyle=orthogonalEdgeStyle;curved=1;rounded=0;sketch=1;orthogonalLoop=1;jettySize=auto;html=1;entryX=0.5;entryY=0;entryDx=0;entryDy=0;" parent="KVv1kEaTQHlU4v2rQUdV-1" source="8o0k4oYvMyt-2cOQT7aP-79" target="8o0k4oYvMyt-2cOQT7aP-83" edge="1">
          <mxGeometry relative="1" as="geometry" />
        </mxCell>
        <mxCell id="8o0k4oYvMyt-2cOQT7aP-79" value="bdev&lt;br&gt;subsystem" style="rounded=1;whiteSpace=wrap;html=1;strokeWidth=2;fillWeight=4;hachureGap=8;hachureAngle=45;sketch=1;shadow=0;fontSize=12;fontColor=#000000;fillColor=#FFFFFF;" parent="KVv1kEaTQHlU4v2rQUdV-1" vertex="1">
          <mxGeometry x="430" y="200" width="120" height="40" as="geometry" />
        </mxCell>
        <UserObject label="storage&lt;br&gt;service" placeholders="1" name="Variable" id="8o0k4oYvMyt-2cOQT7aP-81">
          <mxCell style="text;html=1;strokeColor=none;fillColor=none;align=center;verticalAlign=middle;whiteSpace=wrap;overflow=hidden;" parent="KVv1kEaTQHlU4v2rQUdV-1" vertex="1">
            <mxGeometry x="370" y="200" width="50" height="40" as="geometry" />
          </mxCell>
        </UserObject>
        <mxCell id="8o0k4oYvMyt-2cOQT7aP-82" value="other module" style="rounded=1;whiteSpace=wrap;html=1;strokeWidth=2;fillWeight=4;hachureGap=8;hachureAngle=45;sketch=1;shadow=0;fontSize=12;fontColor=#000000;fillColor=#FFFFFF;" parent="KVv1kEaTQHlU4v2rQUdV-1" vertex="1">
          <mxGeometry x="370" y="260" width="80" height="40" as="geometry" />
        </mxCell>
        <mxCell id="8o0k4oYvMyt-2cOQT7aP-83" value="rbd module&lt;br&gt;(librbd)" style="rounded=1;whiteSpace=wrap;html=1;strokeWidth=2;fillWeight=4;hachureGap=8;hachureAngle=45;sketch=1;shadow=0;fontSize=12;fontColor=#000000;fillColor=#FFFFFF;" parent="KVv1kEaTQHlU4v2rQUdV-1" vertex="1">
          <mxGeometry x="470" y="260" width="80" height="40" as="geometry" />
        </mxCell>
        <mxCell id="8o0k4oYvMyt-2cOQT7aP-86" value="" style="endArrow=none;dashed=1;html=1;exitX=0.001;exitY=0.535;exitDx=0;exitDy=0;exitPerimeter=0;entryX=1;entryY=0.535;entryDx=0;entryDy=0;entryPerimeter=0;strokeWidth=2;sketch=1;" parent="KVv1kEaTQHlU4v2rQUdV-1" source="8o0k4oYvMyt-2cOQT7aP-73" target="8o0k4oYvMyt-2cOQT7aP-73" edge="1">
          <mxGeometry width="50" height="50" relative="1" as="geometry">
            <mxPoint x="640" y="230" as="sourcePoint" />
            <mxPoint x="690" y="180" as="targetPoint" />
          </mxGeometry>
        </mxCell>
        <mxCell id="cXr7WVBPz9ogLk4yMUwH-0" value="" style="rounded=1;whiteSpace=wrap;html=1;strokeWidth=2;fillWeight=4;hachureGap=8;hachureAngle=45;sketch=1;shadow=0;fontSize=12;fontColor=#000000;fillColor=#FFFFFF;" vertex="1" parent="KVv1kEaTQHlU4v2rQUdV-1">
          <mxGeometry x="110" y="380" width="120" height="40" as="geometry" />
        </mxCell>
        <mxCell id="cXr7WVBPz9ogLk4yMUwH-1" value="" style="rounded=1;whiteSpace=wrap;html=1;strokeWidth=2;fillWeight=4;hachureGap=8;hachureAngle=45;sketch=1;shadow=0;fontSize=12;fontColor=#000000;fillColor=#FFFFFF;" vertex="1" parent="KVv1kEaTQHlU4v2rQUdV-1">
          <mxGeometry x="120" y="390" width="120" height="40" as="geometry" />
        </mxCell>
        <mxCell id="cXr7WVBPz9ogLk4yMUwH-48" style="edgeStyle=orthogonalEdgeStyle;curved=1;rounded=0;sketch=1;orthogonalLoop=1;jettySize=auto;html=1;exitX=0.5;exitY=1;exitDx=0;exitDy=0;" edge="1" parent="KVv1kEaTQHlU4v2rQUdV-1" source="cXr7WVBPz9ogLk4yMUwH-2">
          <mxGeometry relative="1" as="geometry">
            <mxPoint x="110" y="480" as="targetPoint" />
          </mxGeometry>
        </mxCell>
        <mxCell id="cXr7WVBPz9ogLk4yMUwH-2" value="" style="rounded=1;whiteSpace=wrap;html=1;strokeWidth=2;fillWeight=4;hachureGap=8;hachureAngle=45;sketch=1;shadow=0;fontSize=12;fontColor=#000000;fillColor=#FFFFFF;" vertex="1" parent="KVv1kEaTQHlU4v2rQUdV-1">
          <mxGeometry x="130" y="400" width="120" height="40" as="geometry" />
        </mxCell>
        <mxCell id="cXr7WVBPz9ogLk4yMUwH-3" value="sdb" style="rounded=1;whiteSpace=wrap;html=1;strokeWidth=2;fillWeight=1;hachureGap=4;hachureAngle=45;sketch=1;shadow=0;fontSize=12;fillColor=#fff2cc;strokeColor=#d6b656;" vertex="1" parent="KVv1kEaTQHlU4v2rQUdV-1">
          <mxGeometry x="140" y="410" width="30" height="20" as="geometry" />
        </mxCell>
        <mxCell id="cXr7WVBPz9ogLk4yMUwH-30" value="" style="rounded=1;whiteSpace=wrap;html=1;strokeWidth=2;fillWeight=4;hachureGap=8;hachureAngle=45;sketch=1;shadow=0;fontSize=12;fontColor=#000000;fillColor=#FFFFFF;" vertex="1" parent="KVv1kEaTQHlU4v2rQUdV-1">
          <mxGeometry x="40" y="480" width="120" height="40" as="geometry" />
        </mxCell>
        <mxCell id="cXr7WVBPz9ogLk4yMUwH-31" value="" style="rounded=1;whiteSpace=wrap;html=1;strokeWidth=2;fillWeight=4;hachureGap=8;hachureAngle=45;sketch=1;shadow=0;fontSize=12;fontColor=#000000;fillColor=#FFFFFF;" vertex="1" parent="KVv1kEaTQHlU4v2rQUdV-1">
          <mxGeometry x="50" y="490" width="120" height="40" as="geometry" />
        </mxCell>
        <mxCell id="cXr7WVBPz9ogLk4yMUwH-40" style="edgeStyle=orthogonalEdgeStyle;rounded=0;orthogonalLoop=1;jettySize=auto;html=1;entryX=0.5;entryY=0;entryDx=0;entryDy=0;sketch=1;curved=1;" edge="1" parent="KVv1kEaTQHlU4v2rQUdV-1" source="cXr7WVBPz9ogLk4yMUwH-32" target="cXr7WVBPz9ogLk4yMUwH-37">
          <mxGeometry relative="1" as="geometry" />
        </mxCell>
        <mxCell id="cXr7WVBPz9ogLk4yMUwH-32" value="port_group&lt;br&gt;(ip + port)" style="rounded=1;whiteSpace=wrap;html=1;strokeWidth=2;fillWeight=4;hachureGap=8;hachureAngle=45;sketch=1;shadow=0;fontSize=12;fontColor=#000000;fillColor=#FFFFFF;" vertex="1" parent="KVv1kEaTQHlU4v2rQUdV-1">
          <mxGeometry x="60" y="500" width="120" height="40" as="geometry" />
        </mxCell>
        <mxCell id="cXr7WVBPz9ogLk4yMUwH-34" value="" style="rounded=1;whiteSpace=wrap;html=1;strokeWidth=2;fillWeight=4;hachureGap=8;hachureAngle=45;sketch=1;shadow=0;fontSize=12;fontColor=#000000;fillColor=#FFFFFF;" vertex="1" parent="KVv1kEaTQHlU4v2rQUdV-1">
          <mxGeometry x="200" y="480" width="120" height="40" as="geometry" />
        </mxCell>
        <mxCell id="cXr7WVBPz9ogLk4yMUwH-35" value="" style="rounded=1;whiteSpace=wrap;html=1;strokeWidth=2;fillWeight=4;hachureGap=8;hachureAngle=45;sketch=1;shadow=0;fontSize=12;fontColor=#000000;fillColor=#FFFFFF;" vertex="1" parent="KVv1kEaTQHlU4v2rQUdV-1">
          <mxGeometry x="210" y="490" width="120" height="40" as="geometry" />
        </mxCell>
        <mxCell id="cXr7WVBPz9ogLk4yMUwH-41" style="edgeStyle=orthogonalEdgeStyle;curved=1;rounded=0;sketch=1;orthogonalLoop=1;jettySize=auto;html=1;entryX=0.5;entryY=0;entryDx=0;entryDy=0;exitX=0.5;exitY=1;exitDx=0;exitDy=0;" edge="1" parent="KVv1kEaTQHlU4v2rQUdV-1" source="cXr7WVBPz9ogLk4yMUwH-33" target="cXr7WVBPz9ogLk4yMUwH-37">
          <mxGeometry relative="1" as="geometry" />
        </mxCell>
        <mxCell id="cXr7WVBPz9ogLk4yMUwH-33" value="initiator_group&lt;br&gt;(ip + netmask)" style="rounded=1;whiteSpace=wrap;html=1;strokeWidth=2;fillWeight=4;hachureGap=8;hachureAngle=45;sketch=1;shadow=0;fontSize=12;fontColor=#000000;fillColor=#FFFFFF;" vertex="1" parent="KVv1kEaTQHlU4v2rQUdV-1">
          <mxGeometry x="220" y="500" width="120" height="40" as="geometry" />
        </mxCell>
        <mxCell id="cXr7WVBPz9ogLk4yMUwH-37" value="" style="rounded=1;whiteSpace=wrap;html=1;strokeWidth=2;fillWeight=4;hachureGap=8;hachureAngle=45;sketch=1;shadow=0;fontSize=12;fontColor=#000000;fillColor=#FFFFFF;" vertex="1" parent="KVv1kEaTQHlU4v2rQUdV-1">
          <mxGeometry x="160" y="580" width="120" height="40" as="geometry" />
        </mxCell>
        <mxCell id="cXr7WVBPz9ogLk4yMUwH-38" value="" style="rounded=1;whiteSpace=wrap;html=1;strokeWidth=2;fillWeight=4;hachureGap=8;hachureAngle=45;sketch=1;shadow=0;fontSize=12;fontColor=#000000;fillColor=#FFFFFF;" vertex="1" parent="KVv1kEaTQHlU4v2rQUdV-1">
          <mxGeometry x="170" y="590" width="120" height="40" as="geometry" />
        </mxCell>
        <mxCell id="cXr7WVBPz9ogLk4yMUwH-36" value="" style="rounded=1;whiteSpace=wrap;html=1;strokeWidth=2;fillWeight=4;hachureGap=8;hachureAngle=45;sketch=1;shadow=0;fontSize=12;fontColor=#000000;fillColor=#FFFFFF;" vertex="1" parent="KVv1kEaTQHlU4v2rQUdV-1">
          <mxGeometry x="180" y="600" width="120" height="40" as="geometry" />
        </mxCell>
        <mxCell id="cXr7WVBPz9ogLk4yMUwH-49" style="edgeStyle=orthogonalEdgeStyle;curved=1;rounded=0;sketch=1;orthogonalLoop=1;jettySize=auto;html=1;exitX=0.5;exitY=1;exitDx=0;exitDy=0;" edge="1" parent="KVv1kEaTQHlU4v2rQUdV-1" source="cXr7WVBPz9ogLk4yMUwH-42" target="cXr7WVBPz9ogLk4yMUwH-46">
          <mxGeometry relative="1" as="geometry" />
        </mxCell>
        <mxCell id="cXr7WVBPz9ogLk4yMUwH-42" value="lun0" style="rounded=1;whiteSpace=wrap;html=1;strokeWidth=2;fillWeight=1;hachureGap=4;hachureAngle=45;sketch=1;shadow=0;fontSize=12;fillColor=#fff2cc;strokeColor=#d6b656;" vertex="1" parent="KVv1kEaTQHlU4v2rQUdV-1">
          <mxGeometry x="190" y="610" width="30" height="20" as="geometry" />
        </mxCell>
        <mxCell id="cXr7WVBPz9ogLk4yMUwH-43" value="initiator" style="text;html=1;align=center;verticalAlign=middle;resizable=0;points=[];autosize=1;strokeColor=none;" vertex="1" parent="KVv1kEaTQHlU4v2rQUdV-1">
          <mxGeometry x="180" y="410" width="50" height="20" as="geometry" />
        </mxCell>
        <mxCell id="cXr7WVBPz9ogLk4yMUwH-44" value="target" style="text;html=1;align=center;verticalAlign=middle;resizable=0;points=[];autosize=1;strokeColor=none;" vertex="1" parent="KVv1kEaTQHlU4v2rQUdV-1">
          <mxGeometry x="250" y="610" width="50" height="20" as="geometry" />
        </mxCell>
        <mxCell id="cXr7WVBPz9ogLk4yMUwH-51" style="edgeStyle=orthogonalEdgeStyle;curved=1;rounded=0;sketch=1;orthogonalLoop=1;jettySize=auto;html=1;" edge="1" parent="KVv1kEaTQHlU4v2rQUdV-1" source="cXr7WVBPz9ogLk4yMUwH-45" target="cXr7WVBPz9ogLk4yMUwH-50">
          <mxGeometry relative="1" as="geometry" />
        </mxCell>
        <mxCell id="cXr7WVBPz9ogLk4yMUwH-45" value="..." style="rounded=1;whiteSpace=wrap;html=1;strokeWidth=2;fillWeight=1;hachureGap=4;hachureAngle=45;sketch=1;shadow=0;fontSize=12;fillColor=#d5e8d4;strokeColor=#82b366;" vertex="1" parent="KVv1kEaTQHlU4v2rQUdV-1">
          <mxGeometry x="220" y="610" width="30" height="20" as="geometry" />
        </mxCell>
        <mxCell id="cXr7WVBPz9ogLk4yMUwH-64" style="edgeStyle=orthogonalEdgeStyle;curved=1;rounded=0;sketch=1;orthogonalLoop=1;jettySize=auto;html=1;entryX=0.197;entryY=0.014;entryDx=0;entryDy=0;entryPerimeter=0;" edge="1" parent="KVv1kEaTQHlU4v2rQUdV-1" source="cXr7WVBPz9ogLk4yMUwH-46" target="cXr7WVBPz9ogLk4yMUwH-53">
          <mxGeometry relative="1" as="geometry" />
        </mxCell>
        <mxCell id="cXr7WVBPz9ogLk4yMUwH-46" value="bdev0&lt;br&gt;(librbd + rbd0)" style="rounded=1;whiteSpace=wrap;html=1;strokeWidth=2;fillWeight=1;hachureGap=4;hachureAngle=45;sketch=1;shadow=0;fontSize=12;fillColor=#fff2cc;strokeColor=#d6b656;" vertex="1" parent="KVv1kEaTQHlU4v2rQUdV-1">
          <mxGeometry x="40" y="680" width="120" height="40" as="geometry" />
        </mxCell>
        <mxCell id="cXr7WVBPz9ogLk4yMUwH-63" style="edgeStyle=orthogonalEdgeStyle;curved=1;rounded=0;sketch=1;orthogonalLoop=1;jettySize=auto;html=1;entryX=0.8;entryY=0.007;entryDx=0;entryDy=0;entryPerimeter=0;" edge="1" parent="KVv1kEaTQHlU4v2rQUdV-1" source="cXr7WVBPz9ogLk4yMUwH-50" target="cXr7WVBPz9ogLk4yMUwH-53">
          <mxGeometry relative="1" as="geometry" />
        </mxCell>
        <mxCell id="cXr7WVBPz9ogLk4yMUwH-50" value="bdevs ...." style="rounded=1;whiteSpace=wrap;html=1;strokeWidth=2;fillWeight=1;hachureGap=4;hachureAngle=45;sketch=1;shadow=0;fontSize=12;fillColor=#d5e8d4;strokeColor=#82b366;" vertex="1" parent="KVv1kEaTQHlU4v2rQUdV-1">
          <mxGeometry x="220" y="680" width="120" height="40" as="geometry" />
        </mxCell>
        <mxCell id="8o0k4oYvMyt-2cOQT7aP-0" value="" style="rounded=1;whiteSpace=wrap;html=1;strokeWidth=2;fillWeight=4;hachureGap=8;hachureAngle=45;sketch=1;shadow=0;fontSize=12;fontColor=#000000;fillColor=#FFFFFF;" parent="KVv1kEaTQHlU4v2rQUdV-1" vertex="1">
          <mxGeometry x="40" y="40" width="120" height="40" as="geometry" />
        </mxCell>
        <mxCell id="8o0k4oYvMyt-2cOQT7aP-1" value="" style="rounded=1;whiteSpace=wrap;html=1;strokeWidth=2;fillWeight=4;hachureGap=8;hachureAngle=45;sketch=1;shadow=0;fontSize=12;fontColor=#000000;fillColor=#FFFFFF;" parent="KVv1kEaTQHlU4v2rQUdV-1" vertex="1">
          <mxGeometry x="50" y="50" width="120" height="40" as="geometry" />
        </mxCell>
        <mxCell id="8o0k4oYvMyt-2cOQT7aP-2" value="" style="rounded=1;whiteSpace=wrap;html=1;strokeWidth=2;fillWeight=4;hachureGap=8;hachureAngle=45;sketch=1;shadow=0;fontSize=12;fontColor=#000000;fillColor=#FFFFFF;" parent="KVv1kEaTQHlU4v2rQUdV-1" vertex="1">
          <mxGeometry x="60" y="60" width="120" height="40" as="geometry" />
        </mxCell>
        <mxCell id="8o0k4oYvMyt-2cOQT7aP-3" value="target" style="rounded=1;whiteSpace=wrap;html=1;strokeWidth=2;fillWeight=4;hachureGap=8;hachureAngle=45;sketch=1;shadow=0;fontSize=12;fontColor=#000000;fillColor=#FFFFFF;" parent="KVv1kEaTQHlU4v2rQUdV-1" vertex="1">
          <mxGeometry x="40" y="160" width="120" height="40" as="geometry" />
        </mxCell>
        <mxCell id="8o0k4oYvMyt-2cOQT7aP-7" style="edgeStyle=orthogonalEdgeStyle;rounded=0;orthogonalLoop=1;jettySize=auto;html=1;entryX=0.468;entryY=-0.043;entryDx=0;entryDy=0;entryPerimeter=0;curved=1;sketch=1;" parent="KVv1kEaTQHlU4v2rQUdV-1" source="8o0k4oYvMyt-2cOQT7aP-2" target="8o0k4oYvMyt-2cOQT7aP-3" edge="1">
          <mxGeometry x="40" y="40" as="geometry" />
        </mxCell>
        <mxCell id="8o0k4oYvMyt-2cOQT7aP-12" value="redirect" style="edgeLabel;html=1;align=center;verticalAlign=middle;resizable=0;points=[];" parent="8o0k4oYvMyt-2cOQT7aP-7" vertex="1" connectable="0">
          <mxGeometry x="-0.1329" y="-4" relative="1" as="geometry">
            <mxPoint x="-15" y="4" as="offset" />
          </mxGeometry>
        </mxCell>
        <mxCell id="8o0k4oYvMyt-2cOQT7aP-4" value="" style="rounded=1;whiteSpace=wrap;html=1;strokeWidth=2;fillWeight=4;hachureGap=8;hachureAngle=45;sketch=1;shadow=0;fontSize=12;fontColor=#000000;fillColor=#FFFFFF;" parent="KVv1kEaTQHlU4v2rQUdV-1" vertex="1">
          <mxGeometry x="180" y="140" width="120" height="40" as="geometry" />
        </mxCell>
        <mxCell id="8o0k4oYvMyt-2cOQT7aP-8" style="edgeStyle=orthogonalEdgeStyle;curved=1;rounded=0;sketch=1;orthogonalLoop=1;jettySize=auto;html=1;entryX=0.5;entryY=0;entryDx=0;entryDy=0;exitX=0.5;exitY=1;exitDx=0;exitDy=0;" parent="KVv1kEaTQHlU4v2rQUdV-1" source="8o0k4oYvMyt-2cOQT7aP-2" target="8o0k4oYvMyt-2cOQT7aP-4" edge="1">
          <mxGeometry x="40" y="40" as="geometry" />
        </mxCell>
        <mxCell id="8o0k4oYvMyt-2cOQT7aP-5" value="" style="rounded=1;whiteSpace=wrap;html=1;strokeWidth=2;fillWeight=4;hachureGap=8;hachureAngle=45;sketch=1;shadow=0;fontSize=12;fontColor=#000000;fillColor=#FFFFFF;" parent="KVv1kEaTQHlU4v2rQUdV-1" vertex="1">
          <mxGeometry x="190" y="150" width="120" height="40" as="geometry" />
        </mxCell>
        <mxCell id="8o0k4oYvMyt-2cOQT7aP-6" value="" style="rounded=1;whiteSpace=wrap;html=1;strokeWidth=2;fillWeight=4;hachureGap=8;hachureAngle=45;sketch=1;shadow=0;fontSize=12;fontColor=#000000;fillColor=#FFFFFF;" parent="KVv1kEaTQHlU4v2rQUdV-1" vertex="1">
          <mxGeometry x="200" y="160" width="120" height="40" as="geometry" />
        </mxCell>
        <mxCell id="8o0k4oYvMyt-2cOQT7aP-9" value="" style="rounded=1;whiteSpace=wrap;html=1;strokeWidth=2;fillWeight=4;hachureGap=8;hachureAngle=45;sketch=1;shadow=0;fontSize=12;fontColor=#000000;fillColor=#FFFFFF;" parent="KVv1kEaTQHlU4v2rQUdV-1" vertex="1">
          <mxGeometry x="40" y="240" width="280" height="80" as="geometry" />
        </mxCell>
        <mxCell id="8o0k4oYvMyt-2cOQT7aP-11" style="edgeStyle=orthogonalEdgeStyle;curved=1;rounded=0;sketch=1;orthogonalLoop=1;jettySize=auto;html=1;entryX=0.782;entryY=-0.014;entryDx=0;entryDy=0;entryPerimeter=0;" parent="KVv1kEaTQHlU4v2rQUdV-1" source="8o0k4oYvMyt-2cOQT7aP-6" target="8o0k4oYvMyt-2cOQT7aP-9" edge="1">
          <mxGeometry x="40" y="40" as="geometry" />
        </mxCell>
        <UserObject label="ceph" placeholders="1" name="Variable" id="8o0k4oYvMyt-2cOQT7aP-13">
          <mxCell style="text;html=1;strokeColor=none;fillColor=none;align=center;verticalAlign=middle;whiteSpace=wrap;overflow=hidden;" parent="KVv1kEaTQHlU4v2rQUdV-1" vertex="1">
            <mxGeometry x="160" y="240" width="40" height="20" as="geometry" />
          </mxCell>
        </UserObject>
        <mxCell id="8o0k4oYvMyt-2cOQT7aP-15" value="" style="rounded=1;whiteSpace=wrap;html=1;strokeWidth=2;fillWeight=1;hachureGap=4;hachureAngle=45;sketch=1;shadow=0;fontSize=12;fillColor=#d5e8d4;strokeColor=#82b366;" parent="KVv1kEaTQHlU4v2rQUdV-1" vertex="1">
          <mxGeometry x="50" y="260" width="30" height="20" as="geometry" />
        </mxCell>
        <mxCell id="8o0k4oYvMyt-2cOQT7aP-16" value="" style="rounded=1;whiteSpace=wrap;html=1;strokeWidth=2;fillWeight=1;hachureGap=4;hachureAngle=45;sketch=1;shadow=0;fontSize=12;fillColor=#f8cecc;strokeColor=#b85450;" parent="KVv1kEaTQHlU4v2rQUdV-1" vertex="1">
          <mxGeometry x="50" y="290" width="30" height="20" as="geometry" />
        </mxCell>
        <mxCell id="8o0k4oYvMyt-2cOQT7aP-17" value="rbd" style="rounded=1;whiteSpace=wrap;html=1;strokeWidth=2;fillWeight=1;hachureGap=4;hachureAngle=45;sketch=1;shadow=0;fontSize=12;fillColor=#fff2cc;strokeColor=#d6b656;" parent="KVv1kEaTQHlU4v2rQUdV-1" vertex="1">
          <mxGeometry x="90" y="260" width="30" height="20" as="geometry" />
        </mxCell>
        <mxCell id="8o0k4oYvMyt-2cOQT7aP-18" value="" style="rounded=1;whiteSpace=wrap;html=1;strokeWidth=2;fillWeight=1;hachureGap=4;hachureAngle=45;sketch=1;shadow=0;fontSize=12;fillColor=#e1d5e7;strokeColor=#9673a6;" parent="KVv1kEaTQHlU4v2rQUdV-1" vertex="1">
          <mxGeometry x="90" y="290" width="30" height="20" as="geometry" />
        </mxCell>
        <mxCell id="8o0k4oYvMyt-2cOQT7aP-36" value="..." style="rounded=1;whiteSpace=wrap;html=1;strokeWidth=2;fillWeight=1;hachureGap=4;hachureAngle=45;sketch=1;shadow=0;fontSize=12;fillColor=#dae8fc;strokeColor=#6c8ebf;" parent="KVv1kEaTQHlU4v2rQUdV-1" vertex="1">
          <mxGeometry x="130" y="290" width="100" height="20" as="geometry" />
        </mxCell>
        <mxCell id="8o0k4oYvMyt-2cOQT7aP-37" value="" style="rounded=1;whiteSpace=wrap;html=1;strokeWidth=2;fillWeight=1;hachureGap=4;hachureAngle=45;sketch=1;shadow=0;fontSize=12;fillColor=#b1ddf0;strokeColor=#10739e;" parent="KVv1kEaTQHlU4v2rQUdV-1" vertex="1">
          <mxGeometry x="280" y="260" width="30" height="20" as="geometry" />
        </mxCell>
        <mxCell id="8o0k4oYvMyt-2cOQT7aP-38" value="" style="rounded=1;whiteSpace=wrap;html=1;strokeWidth=2;fillWeight=1;hachureGap=4;hachureAngle=45;sketch=1;shadow=0;fontSize=12;fillColor=#f5f5f5;strokeColor=#666666;arcSize=0;fontColor=#333333;" parent="KVv1kEaTQHlU4v2rQUdV-1" vertex="1">
          <mxGeometry x="280" y="290" width="30" height="20" as="geometry" />
        </mxCell>
        <mxCell id="8o0k4oYvMyt-2cOQT7aP-40" value="dev" style="rounded=1;whiteSpace=wrap;html=1;strokeWidth=2;fillWeight=1;hachureGap=4;hachureAngle=45;sketch=1;shadow=0;fontSize=12;fillColor=#fff2cc;strokeColor=#d6b656;" parent="KVv1kEaTQHlU4v2rQUdV-1" vertex="1">
          <mxGeometry x="210" y="170" width="30" height="20" as="geometry" />
        </mxCell>
        <mxCell id="8o0k4oYvMyt-2cOQT7aP-41" value="..." style="rounded=1;whiteSpace=wrap;html=1;strokeWidth=2;fillWeight=1;hachureGap=4;hachureAngle=45;sketch=1;shadow=0;fontSize=12;fillColor=#f8cecc;strokeColor=#b85450;" parent="KVv1kEaTQHlU4v2rQUdV-1" vertex="1">
          <mxGeometry x="240" y="170" width="30" height="20" as="geometry" />
        </mxCell>
        <UserObject label="target" placeholders="1" name="Variable" id="8o0k4oYvMyt-2cOQT7aP-43">
          <mxCell style="text;html=1;strokeColor=none;fillColor=none;align=center;verticalAlign=middle;whiteSpace=wrap;overflow=hidden;" parent="KVv1kEaTQHlU4v2rQUdV-1" vertex="1">
            <mxGeometry x="280" y="170" width="40" height="20" as="geometry" />
          </mxCell>
        </UserObject>
        <mxCell id="8o0k4oYvMyt-2cOQT7aP-44" value="sdb" style="rounded=1;whiteSpace=wrap;html=1;strokeWidth=2;fillWeight=1;hachureGap=4;hachureAngle=45;sketch=1;shadow=0;fontSize=12;fillColor=#fff2cc;strokeColor=#d6b656;" parent="KVv1kEaTQHlU4v2rQUdV-1" vertex="1">
          <mxGeometry x="70" y="70" width="30" height="20" as="geometry" />
        </mxCell>
        <mxCell id="8o0k4oYvMyt-2cOQT7aP-45" value="" style="rounded=1;whiteSpace=wrap;html=1;strokeWidth=2;fillWeight=1;hachureGap=4;hachureAngle=45;sketch=1;shadow=0;fontSize=12;fillColor=#67AB9F;strokeColor=#67AB9F;" parent="KVv1kEaTQHlU4v2rQUdV-1" vertex="1">
          <mxGeometry x="240" y="290" width="30" height="20" as="geometry" />
        </mxCell>
        <mxCell id="cXr7WVBPz9ogLk4yMUwH-53" value="" style="rounded=1;whiteSpace=wrap;html=1;strokeWidth=2;fillWeight=4;hachureGap=8;hachureAngle=45;sketch=1;shadow=0;fontSize=12;fontColor=#000000;fillColor=#FFFFFF;" vertex="1" parent="KVv1kEaTQHlU4v2rQUdV-1">
          <mxGeometry x="40" y="760" width="300" height="80" as="geometry" />
        </mxCell>
        <UserObject label="ceph" placeholders="1" name="Variable" id="cXr7WVBPz9ogLk4yMUwH-54">
          <mxCell style="text;html=1;strokeColor=none;fillColor=none;align=center;verticalAlign=middle;whiteSpace=wrap;overflow=hidden;" vertex="1" parent="KVv1kEaTQHlU4v2rQUdV-1">
            <mxGeometry x="160" y="760" width="40" height="20" as="geometry" />
          </mxCell>
        </UserObject>
        <mxCell id="cXr7WVBPz9ogLk4yMUwH-55" value="" style="rounded=1;whiteSpace=wrap;html=1;strokeWidth=2;fillWeight=1;hachureGap=4;hachureAngle=45;sketch=1;shadow=0;fontSize=12;fillColor=#d5e8d4;strokeColor=#82b366;" vertex="1" parent="KVv1kEaTQHlU4v2rQUdV-1">
          <mxGeometry x="50" y="780" width="30" height="20" as="geometry" />
        </mxCell>
        <mxCell id="cXr7WVBPz9ogLk4yMUwH-56" value="" style="rounded=1;whiteSpace=wrap;html=1;strokeWidth=2;fillWeight=1;hachureGap=4;hachureAngle=45;sketch=1;shadow=0;fontSize=12;fillColor=#f8cecc;strokeColor=#b85450;" vertex="1" parent="KVv1kEaTQHlU4v2rQUdV-1">
          <mxGeometry x="50" y="810" width="30" height="20" as="geometry" />
        </mxCell>
        <mxCell id="cXr7WVBPz9ogLk4yMUwH-57" value="rbd0" style="rounded=1;whiteSpace=wrap;html=1;strokeWidth=2;fillWeight=1;hachureGap=4;hachureAngle=45;sketch=1;shadow=0;fontSize=12;fillColor=#fff2cc;strokeColor=#d6b656;" vertex="1" parent="KVv1kEaTQHlU4v2rQUdV-1">
          <mxGeometry x="90" y="780" width="30" height="20" as="geometry" />
        </mxCell>
        <mxCell id="cXr7WVBPz9ogLk4yMUwH-58" value="" style="rounded=1;whiteSpace=wrap;html=1;strokeWidth=2;fillWeight=1;hachureGap=4;hachureAngle=45;sketch=1;shadow=0;fontSize=12;fillColor=#e1d5e7;strokeColor=#9673a6;" vertex="1" parent="KVv1kEaTQHlU4v2rQUdV-1">
          <mxGeometry x="90" y="810" width="30" height="20" as="geometry" />
        </mxCell>
        <mxCell id="cXr7WVBPz9ogLk4yMUwH-59" value="..." style="rounded=1;whiteSpace=wrap;html=1;strokeWidth=2;fillWeight=1;hachureGap=4;hachureAngle=45;sketch=1;shadow=0;fontSize=12;fillColor=#dae8fc;strokeColor=#6c8ebf;" vertex="1" parent="KVv1kEaTQHlU4v2rQUdV-1">
          <mxGeometry x="130" y="810" width="120" height="20" as="geometry" />
        </mxCell>
        <mxCell id="cXr7WVBPz9ogLk4yMUwH-60" value="" style="rounded=1;whiteSpace=wrap;html=1;strokeWidth=2;fillWeight=1;hachureGap=4;hachureAngle=45;sketch=1;shadow=0;fontSize=12;fillColor=#b1ddf0;strokeColor=#10739e;" vertex="1" parent="KVv1kEaTQHlU4v2rQUdV-1">
          <mxGeometry x="300" y="780" width="30" height="20" as="geometry" />
        </mxCell>
        <mxCell id="cXr7WVBPz9ogLk4yMUwH-61" value="" style="rounded=1;whiteSpace=wrap;html=1;strokeWidth=2;fillWeight=1;hachureGap=4;hachureAngle=45;sketch=1;shadow=0;fontSize=12;fillColor=#f5f5f5;strokeColor=#666666;arcSize=0;fontColor=#333333;" vertex="1" parent="KVv1kEaTQHlU4v2rQUdV-1">
          <mxGeometry x="300" y="810" width="30" height="20" as="geometry" />
        </mxCell>
        <mxCell id="cXr7WVBPz9ogLk4yMUwH-62" value="" style="rounded=1;whiteSpace=wrap;html=1;strokeWidth=2;fillWeight=1;hachureGap=4;hachureAngle=45;sketch=1;shadow=0;fontSize=12;fillColor=#67AB9F;strokeColor=#67AB9F;" vertex="1" parent="KVv1kEaTQHlU4v2rQUdV-1">
          <mxGeometry x="260" y="810" width="30" height="20" as="geometry" />
        </mxCell>
        <mxCell id="cXr7WVBPz9ogLk4yMUwH-65" value="initiator" style="text;html=1;align=center;verticalAlign=middle;resizable=0;points=[];autosize=1;strokeColor=none;" vertex="1" parent="KVv1kEaTQHlU4v2rQUdV-1">
          <mxGeometry x="110" y="70" width="50" height="20" as="geometry" />
        </mxCell>
        <UserObject label="spdk iscsi" placeholders="1" name="Variable" id="cXr7WVBPz9ogLk4yMUwH-67">
          <mxCell style="text;html=1;strokeColor=none;fillColor=none;align=center;verticalAlign=middle;whiteSpace=wrap;overflow=hidden;" vertex="1" parent="KVv1kEaTQHlU4v2rQUdV-1">
            <mxGeometry x="35" y="590" width="65" height="20" as="geometry" />
          </mxCell>
        </UserObject>
      </root>
    </mxGraphModel>
  </diagram>
  <diagram id="2AkAZZOOgoFBy40XKjhD" name="spdk_iscsi">
    <mxGraphModel dx="981" dy="637" grid="1" gridSize="10" guides="1" tooltips="1" connect="1" arrows="1" fold="1" page="1" pageScale="1" pageWidth="827" pageHeight="1169" math="0" shadow="0">
      <root>
        <mxCell id="0" />
        <mxCell id="1" parent="0" />
        <mxCell id="6PNHSr4lHcM40_FDZ9yp-5" style="edgeStyle=orthogonalEdgeStyle;curved=1;rounded=0;sketch=1;orthogonalLoop=1;jettySize=auto;html=1;entryX=0;entryY=0.5;entryDx=0;entryDy=0;dashed=1;fontSize=12;fontColor=#000000;" parent="1" source="6PNHSr4lHcM40_FDZ9yp-1" target="6PNHSr4lHcM40_FDZ9yp-2" edge="1">
          <mxGeometry relative="1" as="geometry" />
        </mxCell>
        <mxCell id="6PNHSr4lHcM40_FDZ9yp-1" value="iscsi_subsystem_init" style="rounded=1;whiteSpace=wrap;html=1;strokeWidth=2;fillWeight=4;hachureGap=8;hachureAngle=45;sketch=1;shadow=0;fontSize=12;fontColor=#000000;fillColor=#FFFFFF;" parent="1" vertex="1">
          <mxGeometry x="40" y="40" width="120" height="40" as="geometry" />
        </mxCell>
        <mxCell id="6PNHSr4lHcM40_FDZ9yp-6" style="edgeStyle=orthogonalEdgeStyle;curved=1;rounded=0;sketch=1;orthogonalLoop=1;jettySize=auto;html=1;entryX=0;entryY=0.5;entryDx=0;entryDy=0;dashed=1;fontSize=12;fontColor=#000000;" parent="1" source="6PNHSr4lHcM40_FDZ9yp-2" target="6PNHSr4lHcM40_FDZ9yp-3" edge="1">
          <mxGeometry relative="1" as="geometry" />
        </mxCell>
        <mxCell id="6PNHSr4lHcM40_FDZ9yp-13" style="edgeStyle=orthogonalEdgeStyle;curved=1;rounded=0;sketch=1;orthogonalLoop=1;jettySize=auto;html=1;entryX=0.5;entryY=0;entryDx=0;entryDy=0;dashed=1;fontSize=12;fontColor=#000000;" parent="1" source="6PNHSr4lHcM40_FDZ9yp-2" target="6PNHSr4lHcM40_FDZ9yp-9" edge="1">
          <mxGeometry relative="1" as="geometry" />
        </mxCell>
        <mxCell id="6PNHSr4lHcM40_FDZ9yp-2" value="spdk_iscsi_init" style="rounded=1;whiteSpace=wrap;html=1;strokeWidth=2;fillWeight=4;hachureGap=8;hachureAngle=45;sketch=1;shadow=0;fontSize=12;fontColor=#000000;fillColor=#FFFFFF;" parent="1" vertex="1">
          <mxGeometry x="200" y="40" width="120" height="40" as="geometry" />
        </mxCell>
        <mxCell id="6PNHSr4lHcM40_FDZ9yp-7" style="edgeStyle=orthogonalEdgeStyle;curved=1;rounded=0;sketch=1;orthogonalLoop=1;jettySize=auto;html=1;entryX=0;entryY=0.5;entryDx=0;entryDy=0;dashed=1;fontSize=12;fontColor=#000000;" parent="1" source="6PNHSr4lHcM40_FDZ9yp-3" target="6PNHSr4lHcM40_FDZ9yp-4" edge="1">
          <mxGeometry relative="1" as="geometry" />
        </mxCell>
        <mxCell id="6PNHSr4lHcM40_FDZ9yp-3" value="iscsi_subsystem_&lt;br&gt;init_complete" style="rounded=1;whiteSpace=wrap;html=1;strokeWidth=2;fillWeight=4;hachureGap=8;hachureAngle=45;sketch=1;shadow=0;fontSize=12;fontColor=#000000;fillColor=#FFFFFF;" parent="1" vertex="1">
          <mxGeometry x="360" y="40" width="120" height="40" as="geometry" />
        </mxCell>
        <mxCell id="6PNHSr4lHcM40_FDZ9yp-4" value="spdk_subsystem_&lt;br&gt;init_next" style="rounded=1;whiteSpace=wrap;html=1;strokeWidth=2;fillWeight=4;hachureGap=8;hachureAngle=45;sketch=1;shadow=0;fontSize=12;fontColor=#000000;fillColor=#FFFFFF;" parent="1" vertex="1">
          <mxGeometry x="520" y="40" width="120" height="40" as="geometry" />
        </mxCell>
        <UserObject label="callback" placeholders="1" name="Variable" id="6PNHSr4lHcM40_FDZ9yp-8">
          <mxCell style="text;html=1;strokeColor=none;fillColor=none;align=center;verticalAlign=middle;whiteSpace=wrap;overflow=hidden;shadow=0;sketch=1;fillWeight=1;hachureGap=4;fontSize=12;fontColor=#000000;" parent="1" vertex="1">
            <mxGeometry x="310" y="20" width="60" height="20" as="geometry" />
          </mxCell>
        </UserObject>
        <mxCell id="6PNHSr4lHcM40_FDZ9yp-14" style="edgeStyle=orthogonalEdgeStyle;curved=1;rounded=0;sketch=1;orthogonalLoop=1;jettySize=auto;html=1;entryX=0.5;entryY=0;entryDx=0;entryDy=0;fontSize=12;fontColor=#000000;" parent="1" source="6PNHSr4lHcM40_FDZ9yp-9" target="6PNHSr4lHcM40_FDZ9yp-11" edge="1">
          <mxGeometry relative="1" as="geometry" />
        </mxCell>
        <mxCell id="6PNHSr4lHcM40_FDZ9yp-19" style="edgeStyle=orthogonalEdgeStyle;curved=1;rounded=0;sketch=1;orthogonalLoop=1;jettySize=auto;html=1;entryX=0;entryY=0.5;entryDx=0;entryDy=0;fontSize=12;fontColor=#000000;dashed=1;" parent="1" source="6PNHSr4lHcM40_FDZ9yp-9" target="6PNHSr4lHcM40_FDZ9yp-18" edge="1">
          <mxGeometry relative="1" as="geometry" />
        </mxCell>
        <mxCell id="6PNHSr4lHcM40_FDZ9yp-9" value="iscsi_parse_globals" style="rounded=1;whiteSpace=wrap;html=1;strokeWidth=2;fillWeight=4;hachureGap=8;hachureAngle=45;sketch=1;shadow=0;fontSize=12;fontColor=#000000;fillColor=#FFFFFF;" parent="1" vertex="1">
          <mxGeometry x="200" y="100" width="120" height="40" as="geometry" />
        </mxCell>
        <mxCell id="6PNHSr4lHcM40_FDZ9yp-16" style="edgeStyle=orthogonalEdgeStyle;curved=1;rounded=0;sketch=1;orthogonalLoop=1;jettySize=auto;html=1;entryX=0.5;entryY=0;entryDx=0;entryDy=0;fontSize=12;fontColor=#000000;" parent="1" source="6PNHSr4lHcM40_FDZ9yp-11" target="6PNHSr4lHcM40_FDZ9yp-15" edge="1">
          <mxGeometry relative="1" as="geometry" />
        </mxCell>
        <mxCell id="6PNHSr4lHcM40_FDZ9yp-11" value="rc &amp;lt; 0" style="rhombus;whiteSpace=wrap;html=1;strokeWidth=2;fillWeight=-1;hachureGap=8;fillStyle=cross-hatch;sketch=1;shadow=0;fontSize=12;fontColor=#000000;fillColor=#FFFFFF;" parent="1" vertex="1">
          <mxGeometry x="200" y="160" width="120" height="40" as="geometry" />
        </mxCell>
        <mxCell id="6PNHSr4lHcM40_FDZ9yp-15" value="iscsi_init_complete(-1)" style="rounded=1;whiteSpace=wrap;html=1;strokeWidth=2;fillWeight=4;hachureGap=8;hachureAngle=45;sketch=1;shadow=0;fontSize=12;fontColor=#000000;fillColor=#FFFFFF;" parent="1" vertex="1">
          <mxGeometry x="200" y="220" width="120" height="40" as="geometry" />
        </mxCell>
        <UserObject label="true" placeholders="1" name="Variable" id="6PNHSr4lHcM40_FDZ9yp-17">
          <mxCell style="text;html=1;strokeColor=none;fillColor=none;align=center;verticalAlign=middle;whiteSpace=wrap;overflow=hidden;shadow=0;sketch=1;fillWeight=1;hachureGap=4;fontSize=12;fontColor=#000000;" parent="1" vertex="1">
            <mxGeometry x="260" y="200" width="60" height="20" as="geometry" />
          </mxCell>
        </UserObject>
        <mxCell id="6PNHSr4lHcM40_FDZ9yp-21" style="edgeStyle=orthogonalEdgeStyle;curved=1;rounded=0;sketch=1;orthogonalLoop=1;jettySize=auto;html=1;entryX=0.5;entryY=0;entryDx=0;entryDy=0;fontSize=12;fontColor=#000000;" parent="1" source="6PNHSr4lHcM40_FDZ9yp-18" target="6PNHSr4lHcM40_FDZ9yp-20" edge="1">
          <mxGeometry relative="1" as="geometry" />
        </mxCell>
        <mxCell id="6PNHSr4lHcM40_FDZ9yp-27" style="edgeStyle=orthogonalEdgeStyle;curved=1;rounded=0;sketch=1;orthogonalLoop=1;jettySize=auto;html=1;entryX=0;entryY=0.5;entryDx=0;entryDy=0;fontSize=12;fontColor=#000000;dashed=1;" parent="1" source="6PNHSr4lHcM40_FDZ9yp-18" target="6PNHSr4lHcM40_FDZ9yp-26" edge="1">
          <mxGeometry relative="1" as="geometry" />
        </mxCell>
        <mxCell id="6PNHSr4lHcM40_FDZ9yp-18" value="iscsi_initialize_&lt;br&gt;global_params" style="rounded=1;whiteSpace=wrap;html=1;strokeWidth=2;fillWeight=4;hachureGap=8;hachureAngle=45;sketch=1;shadow=0;fontSize=12;fontColor=#000000;fillColor=#FFFFFF;" parent="1" vertex="1">
          <mxGeometry x="360" y="100" width="120" height="40" as="geometry" />
        </mxCell>
        <mxCell id="6PNHSr4lHcM40_FDZ9yp-24" style="edgeStyle=orthogonalEdgeStyle;curved=1;rounded=0;sketch=1;orthogonalLoop=1;jettySize=auto;html=1;entryX=0.5;entryY=0;entryDx=0;entryDy=0;fontSize=12;fontColor=#000000;" parent="1" source="6PNHSr4lHcM40_FDZ9yp-20" target="6PNHSr4lHcM40_FDZ9yp-22" edge="1">
          <mxGeometry relative="1" as="geometry" />
        </mxCell>
        <mxCell id="6PNHSr4lHcM40_FDZ9yp-29" style="edgeStyle=orthogonalEdgeStyle;curved=1;rounded=0;sketch=1;orthogonalLoop=1;jettySize=auto;html=1;dashed=1;fontSize=12;fontColor=#000000;" parent="1" source="6PNHSr4lHcM40_FDZ9yp-20" target="6PNHSr4lHcM40_FDZ9yp-28" edge="1">
          <mxGeometry relative="1" as="geometry" />
        </mxCell>
        <mxCell id="6PNHSr4lHcM40_FDZ9yp-20" value="iscsi_initialize_&lt;br&gt;all_pools" style="rounded=1;whiteSpace=wrap;html=1;strokeWidth=2;fillWeight=4;hachureGap=8;hachureAngle=45;sketch=1;shadow=0;fontSize=12;fontColor=#000000;fillColor=#FFFFFF;" parent="1" vertex="1">
          <mxGeometry x="360" y="160" width="120" height="40" as="geometry" />
        </mxCell>
        <mxCell id="6PNHSr4lHcM40_FDZ9yp-25" style="edgeStyle=orthogonalEdgeStyle;curved=1;rounded=0;sketch=1;orthogonalLoop=1;jettySize=auto;html=1;entryX=0.5;entryY=0;entryDx=0;entryDy=0;fontSize=12;fontColor=#000000;" parent="1" source="6PNHSr4lHcM40_FDZ9yp-22" target="6PNHSr4lHcM40_FDZ9yp-23" edge="1">
          <mxGeometry relative="1" as="geometry" />
        </mxCell>
        <mxCell id="6PNHSr4lHcM40_FDZ9yp-36" style="edgeStyle=orthogonalEdgeStyle;curved=1;rounded=0;sketch=1;orthogonalLoop=1;jettySize=auto;html=1;entryX=0;entryY=0.5;entryDx=0;entryDy=0;fontSize=12;fontColor=#000000;dashed=1;" parent="1" source="6PNHSr4lHcM40_FDZ9yp-22" target="6PNHSr4lHcM40_FDZ9yp-35" edge="1">
          <mxGeometry relative="1" as="geometry" />
        </mxCell>
        <mxCell id="6PNHSr4lHcM40_FDZ9yp-22" value="initialize_iscsi_conns" style="rounded=1;whiteSpace=wrap;html=1;strokeWidth=2;fillWeight=4;hachureGap=8;hachureAngle=45;sketch=1;shadow=0;fontSize=12;fontColor=#000000;fillColor=#FFFFFF;" parent="1" vertex="1">
          <mxGeometry x="360" y="220" width="120" height="40" as="geometry" />
        </mxCell>
        <mxCell id="6PNHSr4lHcM40_FDZ9yp-38" style="edgeStyle=orthogonalEdgeStyle;curved=1;rounded=0;sketch=1;orthogonalLoop=1;jettySize=auto;html=1;dashed=1;fontSize=12;fontColor=#000000;" parent="1" source="6PNHSr4lHcM40_FDZ9yp-23" target="6PNHSr4lHcM40_FDZ9yp-37" edge="1">
          <mxGeometry relative="1" as="geometry" />
        </mxCell>
        <mxCell id="6PNHSr4lHcM40_FDZ9yp-23" value="initialize_iscsi_&lt;br&gt;poll_group" style="rounded=1;whiteSpace=wrap;html=1;strokeWidth=2;fillWeight=4;hachureGap=8;hachureAngle=45;sketch=1;shadow=0;fontSize=12;fontColor=#000000;fillColor=#FFFFFF;" parent="1" vertex="1">
          <mxGeometry x="360" y="280" width="120" height="40" as="geometry" />
        </mxCell>
        <mxCell id="6PNHSr4lHcM40_FDZ9yp-26" value="spdk_iscsi_globals&lt;br&gt;(g_iscsi)" style="rounded=1;whiteSpace=wrap;html=1;strokeWidth=2;fillWeight=1;hachureGap=4;hachureAngle=45;sketch=1;shadow=0;fontSize=12;fillColor=#d5e8d4;strokeColor=#82b366;" parent="1" vertex="1">
          <mxGeometry x="520" y="100" width="120" height="40" as="geometry" />
        </mxCell>
        <mxCell id="6PNHSr4lHcM40_FDZ9yp-34" style="edgeStyle=orthogonalEdgeStyle;curved=1;rounded=0;sketch=1;orthogonalLoop=1;jettySize=auto;html=1;entryX=0;entryY=0.5;entryDx=0;entryDy=0;fontSize=12;fontColor=#000000;" parent="1" source="6PNHSr4lHcM40_FDZ9yp-28" target="6PNHSr4lHcM40_FDZ9yp-30" edge="1">
          <mxGeometry relative="1" as="geometry" />
        </mxCell>
        <mxCell id="6PNHSr4lHcM40_FDZ9yp-28" value="iscsi_initialize_&lt;br&gt;pdu_pool" style="rounded=1;whiteSpace=wrap;html=1;strokeWidth=2;fillWeight=4;hachureGap=8;hachureAngle=45;sketch=1;shadow=0;fontSize=12;fontColor=#000000;fillColor=#FFFFFF;" parent="1" vertex="1">
          <mxGeometry x="520" y="160" width="120" height="40" as="geometry" />
        </mxCell>
        <mxCell id="6PNHSr4lHcM40_FDZ9yp-33" style="edgeStyle=orthogonalEdgeStyle;curved=1;rounded=0;sketch=1;orthogonalLoop=1;jettySize=auto;html=1;entryX=0.5;entryY=0;entryDx=0;entryDy=0;fontSize=12;fontColor=#000000;" parent="1" source="6PNHSr4lHcM40_FDZ9yp-30" target="6PNHSr4lHcM40_FDZ9yp-32" edge="1">
          <mxGeometry relative="1" as="geometry" />
        </mxCell>
        <mxCell id="6PNHSr4lHcM40_FDZ9yp-30" value="iscsi_initialize_&lt;br&gt;session_pool" style="rounded=1;whiteSpace=wrap;html=1;strokeWidth=2;fillWeight=4;hachureGap=8;hachureAngle=45;sketch=1;shadow=0;fontSize=12;fontColor=#000000;fillColor=#FFFFFF;" parent="1" vertex="1">
          <mxGeometry x="680" y="160" width="120" height="40" as="geometry" />
        </mxCell>
        <mxCell id="6PNHSr4lHcM40_FDZ9yp-32" value="iscsi_initialize_&lt;br&gt;task_pool" style="rounded=1;whiteSpace=wrap;html=1;strokeWidth=2;fillWeight=4;hachureGap=8;hachureAngle=45;sketch=1;shadow=0;fontSize=12;fontColor=#000000;fillColor=#FFFFFF;" parent="1" vertex="1">
          <mxGeometry x="680" y="220" width="120" height="40" as="geometry" />
        </mxCell>
        <mxCell id="6PNHSr4lHcM40_FDZ9yp-35" value="g_conns_array&lt;br&gt;g_free_conns" style="rounded=1;whiteSpace=wrap;html=1;strokeWidth=2;fillWeight=1;hachureGap=4;hachureAngle=45;sketch=1;shadow=0;fontSize=12;fillColor=#d5e8d4;strokeColor=#82b366;" parent="1" vertex="1">
          <mxGeometry x="520" y="220" width="120" height="40" as="geometry" />
        </mxCell>
        <mxCell id="6PNHSr4lHcM40_FDZ9yp-41" style="edgeStyle=orthogonalEdgeStyle;curved=1;rounded=0;sketch=1;orthogonalLoop=1;jettySize=auto;html=1;entryX=0;entryY=0.5;entryDx=0;entryDy=0;dashed=1;fontSize=12;fontColor=#000000;" parent="1" source="6PNHSr4lHcM40_FDZ9yp-37" target="6PNHSr4lHcM40_FDZ9yp-39" edge="1">
          <mxGeometry relative="1" as="geometry" />
        </mxCell>
        <mxCell id="6PNHSr4lHcM40_FDZ9yp-42" style="edgeStyle=orthogonalEdgeStyle;curved=1;rounded=0;sketch=1;orthogonalLoop=1;jettySize=auto;html=1;entryX=0;entryY=0.5;entryDx=0;entryDy=0;dashed=1;fontSize=12;fontColor=#000000;" parent="1" source="6PNHSr4lHcM40_FDZ9yp-37" target="6PNHSr4lHcM40_FDZ9yp-40" edge="1">
          <mxGeometry relative="1" as="geometry" />
        </mxCell>
        <mxCell id="6PNHSr4lHcM40_FDZ9yp-45" style="edgeStyle=orthogonalEdgeStyle;curved=1;rounded=0;sketch=1;orthogonalLoop=1;jettySize=auto;html=1;entryX=0.5;entryY=0;entryDx=0;entryDy=0;fontSize=12;fontColor=#000000;" parent="1" source="6PNHSr4lHcM40_FDZ9yp-37" target="6PNHSr4lHcM40_FDZ9yp-44" edge="1">
          <mxGeometry relative="1" as="geometry" />
        </mxCell>
        <mxCell id="6PNHSr4lHcM40_FDZ9yp-37" value="spdk_io_device_&lt;br&gt;register(g_iscsi)" style="rounded=1;whiteSpace=wrap;html=1;strokeWidth=2;fillWeight=4;hachureGap=8;hachureAngle=45;sketch=1;shadow=0;fontSize=12;fontColor=#000000;fillColor=#FFFFFF;" parent="1" vertex="1">
          <mxGeometry x="520" y="280" width="120" height="40" as="geometry" />
        </mxCell>
        <mxCell id="6PNHSr4lHcM40_FDZ9yp-39" value="iscsi_poll_group_&lt;br&gt;create" style="rounded=1;whiteSpace=wrap;html=1;strokeWidth=2;fillWeight=4;hachureGap=8;hachureAngle=45;sketch=1;shadow=0;fontSize=12;fontColor=#000000;fillColor=#FFFFFF;" parent="1" vertex="1">
          <mxGeometry x="680" y="280" width="120" height="40" as="geometry" />
        </mxCell>
        <mxCell id="6PNHSr4lHcM40_FDZ9yp-40" value="iscsi_poll_group_&lt;br&gt;destroy" style="rounded=1;whiteSpace=wrap;html=1;strokeWidth=2;fillWeight=4;hachureGap=8;hachureAngle=45;sketch=1;shadow=0;fontSize=12;fontColor=#000000;fillColor=#FFFFFF;" parent="1" vertex="1">
          <mxGeometry x="680" y="340" width="120" height="40" as="geometry" />
        </mxCell>
        <UserObject label="callback" placeholders="1" name="Variable" id="6PNHSr4lHcM40_FDZ9yp-43">
          <mxCell style="text;html=1;strokeColor=none;fillColor=none;align=center;verticalAlign=middle;whiteSpace=wrap;overflow=hidden;shadow=0;sketch=1;fillWeight=1;hachureGap=4;fontSize=12;fontColor=#000000;" parent="1" vertex="1">
            <mxGeometry x="640" y="320" width="60" height="20" as="geometry" />
          </mxCell>
        </UserObject>
        <mxCell id="6PNHSr4lHcM40_FDZ9yp-47" style="edgeStyle=orthogonalEdgeStyle;curved=1;rounded=0;sketch=1;orthogonalLoop=1;jettySize=auto;html=1;entryX=0.5;entryY=0;entryDx=0;entryDy=0;fontSize=12;fontColor=#000000;" parent="1" source="6PNHSr4lHcM40_FDZ9yp-44" target="6PNHSr4lHcM40_FDZ9yp-46" edge="1">
          <mxGeometry relative="1" as="geometry" />
        </mxCell>
        <mxCell id="6PNHSr4lHcM40_FDZ9yp-44" value="spdk_thread_create&lt;br&gt;(iscsi_poll_group_${i})" style="rounded=1;whiteSpace=wrap;html=1;strokeWidth=2;fillWeight=4;hachureGap=8;hachureAngle=45;sketch=1;shadow=0;fontSize=12;fontColor=#000000;fillColor=#FFFFFF;" parent="1" vertex="1">
          <mxGeometry x="520" y="340" width="120" height="40" as="geometry" />
        </mxCell>
        <mxCell id="6PNHSr4lHcM40_FDZ9yp-48" style="edgeStyle=orthogonalEdgeStyle;curved=1;rounded=0;sketch=1;orthogonalLoop=1;jettySize=auto;html=1;entryX=0;entryY=0.5;entryDx=0;entryDy=0;fontSize=12;fontColor=#000000;exitX=0;exitY=0.5;exitDx=0;exitDy=0;" parent="1" source="6PNHSr4lHcM40_FDZ9yp-46" target="6PNHSr4lHcM40_FDZ9yp-44" edge="1">
          <mxGeometry relative="1" as="geometry">
            <Array as="points">
              <mxPoint x="500" y="420" />
              <mxPoint x="500" y="360" />
            </Array>
          </mxGeometry>
        </mxCell>
        <mxCell id="6PNHSr4lHcM40_FDZ9yp-49" value="cores" style="edgeLabel;html=1;align=center;verticalAlign=middle;resizable=0;points=[];fontSize=12;fontColor=#000000;" parent="6PNHSr4lHcM40_FDZ9yp-48" vertex="1" connectable="0">
          <mxGeometry x="-0.1366" relative="1" as="geometry">
            <mxPoint y="-7" as="offset" />
          </mxGeometry>
        </mxCell>
        <mxCell id="6PNHSr4lHcM40_FDZ9yp-51" style="edgeStyle=orthogonalEdgeStyle;curved=1;rounded=0;sketch=1;orthogonalLoop=1;jettySize=auto;html=1;entryX=0;entryY=0.5;entryDx=0;entryDy=0;fontSize=12;fontColor=#000000;dashed=1;" parent="1" source="6PNHSr4lHcM40_FDZ9yp-46" target="6PNHSr4lHcM40_FDZ9yp-50" edge="1">
          <mxGeometry relative="1" as="geometry" />
        </mxCell>
        <mxCell id="6PNHSr4lHcM40_FDZ9yp-46" value="spdk_thread_&lt;br&gt;send_msg" style="rounded=1;whiteSpace=wrap;html=1;strokeWidth=2;fillWeight=4;hachureGap=8;hachureAngle=45;sketch=1;shadow=0;fontSize=12;fontColor=#000000;fillColor=#FFFFFF;" parent="1" vertex="1">
          <mxGeometry x="520" y="400" width="120" height="40" as="geometry" />
        </mxCell>
        <mxCell id="6PNHSr4lHcM40_FDZ9yp-50" value="_iscsi_init_thread" style="rounded=1;whiteSpace=wrap;html=1;strokeWidth=2;fillWeight=4;hachureGap=8;hachureAngle=45;sketch=1;shadow=0;fontSize=12;fontColor=#000000;fillColor=#FFFFFF;" parent="1" vertex="1">
          <mxGeometry x="680" y="400" width="120" height="40" as="geometry" />
        </mxCell>
        <UserObject label="message" placeholders="1" name="Variable" id="6PNHSr4lHcM40_FDZ9yp-52">
          <mxCell style="text;html=1;strokeColor=none;fillColor=none;align=center;verticalAlign=middle;whiteSpace=wrap;overflow=hidden;shadow=0;sketch=1;fillWeight=1;hachureGap=4;fontSize=12;fontColor=#000000;" parent="1" vertex="1">
            <mxGeometry x="630" y="380" width="60" height="20" as="geometry" />
          </mxCell>
        </UserObject>
      </root>
    </mxGraphModel>
  </diagram>
</mxfile>
